<?xml version="1.0" encoding="UTF-8" standalone="no"?>
<!DOCTYPE svg PUBLIC "-//W3C//DTD SVG 1.1//EN" "http://www.w3.org/Graphics/SVG/1.1/DTD/svg11.dtd">
<svg version="1.1" xmlns="http://www.w3.org/2000/svg" xmlns:xlink="http://www.w3.org/1999/xlink" preserveAspectRatio="xMidYMid meet" viewBox="-0.543585485550409 -1.0000000000002274 644 644.0000000000001" width="640" height="640"><defs><path d="M320.46 0C143.73 0 0.46 143.27 0.46 320C0.46 496.73 143.73 640 320.46 640C497.19 640 640.46 496.73 640.46 320C640.46 143.27 497.19 0 320.46 0Z" id="a12JflTwtw"></path><path d="M487.06 273.23C474.87 273.18 463.16 277.91 454.42 286.4C422.34 263.48 378.42 248.59 329.55 246.68C330.97 240.01 338.1 206.66 350.93 146.63C392.63 155.57 415.8 160.53 420.43 161.53C421.13 179.86 436.57 194.15 454.9 193.45C473.24 192.75 487.53 177.31 486.82 158.98C486.12 140.65 470.69 126.35 452.35 127.06C440.2 127.52 429.27 134.59 423.87 145.49C416.11 143.85 354.1 130.71 346.35 129.07C344.06 128.69 341.77 129.07 340.24 130.21C338.37 131.41 337.12 133.36 336.8 135.56C334.43 146.71 315.49 235.91 313.13 247.06C263.48 248.59 218.81 263.48 186.35 286.78C167.81 268.93 138.32 269.5 120.48 288.03C102.63 306.57 103.19 336.06 121.73 353.9C125.55 357.58 129.97 360.58 134.8 362.77C134.03 367.35 133.65 371.93 133.65 376.9C133.65 448.69 217.28 507.11 320.38 507.11C423.48 507.11 507.11 449.07 507.11 376.9C507.11 372.16 506.73 367.44 505.97 362.77C522 355.51 533.46 339.09 533.46 320C533.56 294.27 512.79 273.33 487.06 273.23ZM246.68 320C265.03 320 279.9 334.87 279.9 353.22C279.9 353.22 279.9 353.22 279.9 353.22C279.9 371.57 265.03 386.44 246.68 386.44C228.33 386.44 213.46 371.57 213.46 353.22C213.46 334.87 228.33 320 246.68 320ZM320.38 465.87C307.4 465.87 263.87 463.96 241.34 441.43C237.9 438 237.9 432.65 241.34 429.21C244.77 425.78 250.12 425.78 253.56 429.21C268.07 443.72 298.62 448.69 320.38 448.69C342.15 448.69 373.08 443.72 387.21 429.21C390.64 425.78 395.99 425.78 399.43 429.21C402.48 432.65 402.48 438 399.43 441.43C376.52 464.34 332.98 465.87 320.38 465.87ZM360.1 353.6C360.1 335.26 374.97 320.38 393.32 320.38C411.67 320.38 426.54 335.26 426.54 353.6C426.54 371.95 411.67 386.83 393.32 386.83C374.97 386.83 360.1 371.95 360.1 353.6Z" id="bUe1wFsO"></path></defs><g><g><use xlink:href="#a12JflTwtw" opacity="1" fill="#ff4500" fill-opacity="1"></use><g><use xlink:href="#a12JflTwtw" opacity="1" fill-opacity="0" stroke="#000000" stroke-width="1" stroke-opacity="0"></use></g></g><g><use xlink:href="#bUe1wFsO" opacity="1" fill="#ffffff" fill-opacity="1"></use><g><use xlink:href="#bUe1wFsO" opacity="1" fill-opacity="0" stroke="#000000" stroke-width="1" stroke-opacity="0"></use></g></g></g></svg>